<svg xmlns="http://www.w3.org/2000/svg" xmlns:xlink="http://www.w3.org/1999/xlink" width="500" zoomAndPan="magnify" viewBox="0 0 375 149.999998" height="200" preserveAspectRatio="xMidYMid meet" version="1.0"><defs><g/><clipPath id="e33a4a3acc"><path d="M 6 24 L 111 24 L 111 131 L 6 131 Z M 6 24 " clip-rule="nonzero"/></clipPath><clipPath id="5b84ae282d"><path d="M 0.00390625 77.714844 L 57.191406 20.523438 L 114.382812 77.714844 L 57.191406 134.90625 Z M 0.00390625 77.714844 " clip-rule="nonzero"/></clipPath><clipPath id="57a016009f"><path d="M 0.00390625 77.714844 L 57.191406 20.523438 L 114.382812 77.714844 L 57.191406 134.90625 Z M 0.00390625 77.714844 " clip-rule="nonzero"/></clipPath></defs><g clip-path="url(#e33a4a3acc)"><g clip-path="url(#5b84ae282d)"><g clip-path="url(#57a016009f)"><path fill="#000000" d="M 21.734375 78.839844 L 21.742188 80.128906 L 21.742188 80.257812 C 21.671875 84.363281 18.285156 87.707031 14.164062 87.707031 C 10.042969 87.707031 6.65625 84.363281 6.582031 80.257812 L 6.582031 80.128906 L 6.574219 78.839844 L 6.582031 75.300781 C 6.582031 71.136719 9.992188 67.726562 14.164062 67.71875 C 18.328125 67.71875 21.742188 71.136719 21.742188 75.300781 Z M 86.816406 85.265625 L 102.726562 85.265625 C 106.890625 85.265625 110.296875 81.855469 110.304688 77.683594 C 110.296875 73.511719 106.890625 70.105469 102.726562 70.105469 L 79.234375 70.105469 C 75.070312 70.105469 71.664062 73.511719 71.65625 77.683594 L 71.65625 85.265625 L 71.664062 86.613281 L 71.664062 101.269531 C 71.664062 105.433594 75.070312 108.84375 79.242188 108.847656 C 83.40625 108.847656 86.824219 105.433594 86.824219 101.269531 L 86.824219 86.613281 Z M 57.503906 24.984375 L 57.511719 24.976562 C 61.675781 24.976562 65.089844 28.390625 65.089844 32.558594 L 65.085938 122.804688 C 65.089844 126.976562 61.675781 130.394531 57.503906 130.386719 C 53.339844 130.386719 49.929688 126.976562 49.921875 122.804688 L 49.929688 32.558594 C 49.929688 28.390625 53.339844 24.984375 57.503906 24.984375 Z M 35.835938 46.523438 C 40 46.523438 43.410156 49.929688 43.417969 54.101562 L 43.417969 101.269531 C 43.417969 105.433594 40 108.847656 35.835938 108.847656 C 31.664062 108.84375 28.257812 105.433594 28.257812 101.269531 L 28.257812 54.101562 C 28.257812 49.9375 31.671875 46.523438 35.835938 46.523438 Z M 35.835938 46.523438 " fill-opacity="1" fill-rule="evenodd"/></g></g></g><g fill="#000000" fill-opacity="1"><g transform="translate(118.328158, 78.664366)"><g><path d="M 33.578125 0 L 28.890625 0 L 28.890625 -17.25 L 20.828125 0 L 16.40625 0 L 7.828125 -17.609375 L 7.828125 0 L 3.125 0 L 3.125 -28.125 L 7.90625 -28.125 L 18.578125 -6.265625 L 28.8125 -28.125 L 33.578125 -28.125 Z M 33.578125 0 "/></g></g></g><g fill="#000000" fill-opacity="1"><g transform="translate(155.074748, 78.664366)"><g><path d="M 7.859375 -23.390625 L 7.859375 -16.375 L 19.546875 -16.375 L 19.546875 -11.71875 L 7.859375 -11.71875 L 7.859375 -4.6875 L 21.90625 -4.6875 L 21.90625 0 L 3.171875 0 L 3.171875 -28.09375 L 21.90625 -28.09375 L 21.90625 -23.390625 Z M 7.859375 -23.390625 "/></g></g></g><g fill="#000000" fill-opacity="1"><g transform="translate(178.663176, 78.664366)"><g><path d="M 28.09375 -15.96875 L 28.09375 0.125 L 24 0.125 L 23.75 -2.53125 C 22.601562 -1.457031 21.398438 -0.695312 20.140625 -0.25 C 18.878906 0.1875 17.421875 0.40625 15.765625 0.40625 C 13.253906 0.40625 10.976562 -0.160156 8.9375 -1.296875 C 6.90625 -2.441406 5.296875 -4.085938 4.109375 -6.234375 C 2.921875 -8.390625 2.328125 -10.992188 2.328125 -14.046875 C 2.328125 -16.128906 2.6875 -18.050781 3.40625 -19.8125 C 4.132812 -21.582031 5.144531 -23.113281 6.4375 -24.40625 C 7.738281 -25.707031 9.238281 -26.710938 10.9375 -27.421875 C 12.632812 -28.128906 14.445312 -28.484375 16.375 -28.484375 C 18.320312 -28.484375 20.144531 -28.113281 21.84375 -27.375 C 23.539062 -26.644531 25.019531 -25.640625 26.28125 -24.359375 L 22.984375 -21.0625 C 22.160156 -21.914062 21.171875 -22.582031 20.015625 -23.0625 C 18.867188 -23.550781 17.65625 -23.796875 16.375 -23.796875 C 14.65625 -23.796875 13.085938 -23.40625 11.671875 -22.625 C 10.253906 -21.851562 9.125 -20.742188 8.28125 -19.296875 C 7.4375 -17.859375 7.015625 -16.109375 7.015625 -14.046875 C 7.015625 -11.773438 7.4375 -9.914062 8.28125 -8.46875 C 9.125 -7.019531 10.253906 -5.960938 11.671875 -5.296875 C 13.085938 -4.628906 14.65625 -4.296875 16.375 -4.296875 C 17.789062 -4.296875 19.097656 -4.578125 20.296875 -5.140625 C 21.503906 -5.703125 22.535156 -6.476562 23.390625 -7.46875 L 23.390625 -11.515625 L 18.703125 -11.515625 L 18.703125 -15.96875 Z M 28.09375 -15.96875 "/></g></g></g><g fill="#000000" fill-opacity="1"><g transform="translate(209.67313, 78.664366)"><g><path d="M 16.125 -3.25 L 6.265625 -3.25 L 5.0625 0 L 0 0 L 11.1875 -28.890625 L 22.4375 0 L 17.375 0 Z M 7.78125 -7.296875 L 14.609375 -7.296875 L 11.1875 -17.046875 Z M 7.78125 -7.296875 "/></g></g></g><g fill="#000000" fill-opacity="1"><g transform="translate(232.098174, 78.664366)"><g><path d="M 17.25 -23.796875 L 11.359375 -23.796875 L 11.359375 0 L 6.703125 0 L 6.703125 -23.796875 L 0.796875 -23.796875 L 0.796875 -28.09375 L 17.25 -28.09375 Z M 17.25 -23.796875 "/></g></g></g><g fill="#000000" fill-opacity="1"><g transform="translate(250.070307, 78.664366)"><g><path d="M 7.859375 -23.390625 L 7.859375 -16.375 L 19.546875 -16.375 L 19.546875 -11.71875 L 7.859375 -11.71875 L 7.859375 -4.6875 L 21.90625 -4.6875 L 21.90625 0 L 3.171875 0 L 3.171875 -28.09375 L 21.90625 -28.09375 L 21.90625 -23.390625 Z M 7.859375 -23.390625 "/></g></g></g><g fill="#000000" fill-opacity="1"><g transform="translate(273.658734, 78.664366)"><g><path d="M 33.578125 0 L 28.890625 0 L 28.890625 -17.25 L 20.828125 0 L 16.40625 0 L 7.828125 -17.609375 L 7.828125 0 L 3.125 0 L 3.125 -28.125 L 7.90625 -28.125 L 18.578125 -6.265625 L 28.8125 -28.125 L 33.578125 -28.125 Z M 33.578125 0 "/></g></g></g><g fill="#000000" fill-opacity="1"><g transform="translate(310.405324, 78.664366)"><g><path d="M 12.515625 -28.09375 C 12.515625 -28.09375 12.742188 -28.078125 13.203125 -28.046875 C 13.660156 -28.015625 14.242188 -27.925781 14.953125 -27.78125 C 15.660156 -27.632812 16.40625 -27.394531 17.1875 -27.0625 C 17.976562 -26.726562 18.726562 -26.257812 19.4375 -25.65625 C 20.144531 -25.050781 20.726562 -24.28125 21.1875 -23.34375 C 21.644531 -22.414062 21.875 -21.269531 21.875 -19.90625 C 21.875 -18.539062 21.644531 -17.390625 21.1875 -16.453125 C 20.726562 -15.515625 20.144531 -14.742188 19.4375 -14.140625 C 18.726562 -13.535156 17.976562 -13.066406 17.1875 -12.734375 C 16.40625 -12.398438 15.660156 -12.160156 14.953125 -12.015625 C 14.242188 -11.867188 13.660156 -11.78125 13.203125 -11.75 C 12.742188 -11.726562 12.515625 -11.71875 12.515625 -11.71875 L 7.859375 -11.71875 L 7.859375 0 L 3.171875 0 L 3.171875 -16.375 L 7.625 -16.375 L 3.171875 -23.390625 L 3.171875 -28.09375 Z M 13.125 -16.40625 C 13.550781 -16.457031 14.082031 -16.582031 14.71875 -16.78125 C 15.363281 -16.988281 15.941406 -17.332031 16.453125 -17.8125 C 16.960938 -18.289062 17.21875 -18.988281 17.21875 -19.90625 C 17.21875 -20.78125 16.984375 -21.453125 16.515625 -21.921875 C 16.046875 -22.390625 15.492188 -22.726562 14.859375 -22.9375 C 14.234375 -23.15625 13.6875 -23.285156 13.21875 -23.328125 C 12.75 -23.367188 12.515625 -23.390625 12.515625 -23.390625 L 8.75 -23.390625 Z M 13.125 -16.40625 "/></g></g></g><g fill="#000000" fill-opacity="1"><g transform="translate(333.793167, 78.664366)"><g><path d="M 12.71875 -7.625 C 11.269531 -7.625 9.914062 -7.894531 8.65625 -8.4375 C 7.40625 -8.988281 6.304688 -9.738281 5.359375 -10.6875 C 4.410156 -11.644531 3.660156 -12.75 3.109375 -14 C 2.554688 -15.257812 2.28125 -16.613281 2.28125 -18.0625 C 2.28125 -19.5 2.554688 -20.847656 3.109375 -22.109375 C 3.660156 -23.367188 4.410156 -24.472656 5.359375 -25.421875 C 6.304688 -26.367188 7.40625 -27.113281 8.65625 -27.65625 C 9.914062 -28.207031 11.269531 -28.484375 12.71875 -28.484375 C 14.164062 -28.484375 15.515625 -28.207031 16.765625 -27.65625 C 18.023438 -27.113281 19.128906 -26.367188 20.078125 -25.421875 C 21.023438 -24.472656 21.773438 -23.367188 22.328125 -22.109375 C 22.878906 -20.847656 23.15625 -19.5 23.15625 -18.0625 C 23.15625 -16.613281 22.878906 -15.257812 22.328125 -14 C 21.773438 -12.75 21.023438 -11.644531 20.078125 -10.6875 C 19.128906 -9.738281 18.023438 -8.988281 16.765625 -8.4375 C 15.515625 -7.894531 14.164062 -7.625 12.71875 -7.625 Z M 12.71875 -23.828125 C 11.644531 -23.828125 10.671875 -23.566406 9.796875 -23.046875 C 8.929688 -22.523438 8.238281 -21.828125 7.71875 -20.953125 C 7.195312 -20.085938 6.9375 -19.125 6.9375 -18.0625 C 6.9375 -16.988281 7.195312 -16.015625 7.71875 -15.140625 C 8.238281 -14.273438 8.929688 -13.582031 9.796875 -13.0625 C 10.671875 -12.539062 11.644531 -12.28125 12.71875 -12.28125 C 13.789062 -12.28125 14.757812 -12.539062 15.625 -13.0625 C 16.5 -13.582031 17.195312 -14.273438 17.71875 -15.140625 C 18.238281 -16.015625 18.5 -16.988281 18.5 -18.0625 C 18.5 -19.125 18.238281 -20.085938 17.71875 -20.953125 C 17.195312 -21.828125 16.5 -22.523438 15.625 -23.046875 C 14.757812 -23.566406 13.789062 -23.828125 12.71875 -23.828125 Z M 21.875 0 L 3.328125 0 L 3.328125 -4.65625 L 21.875 -4.65625 Z M 21.875 0 "/></g></g></g><g fill="#000000" fill-opacity="1"><g transform="translate(123.456152, 110.852949)"><g><path d="M 2.59375 -7.734375 L 2.59375 -5.40625 L 6.453125 -5.40625 L 6.453125 -3.875 L 2.59375 -3.875 L 2.59375 -1.546875 L 7.25 -1.546875 L 7.25 0 L 1.046875 0 L 1.046875 -9.28125 L 7.25 -9.28125 L 7.25 -7.734375 Z M 2.59375 -7.734375 "/></g></g></g><g fill="#000000" fill-opacity="1"><g transform="translate(131.253835, 110.852949)"><g><path d="M 11.109375 0 L 9.546875 0 L 9.546875 -5.703125 L 6.890625 0 L 5.421875 0 L 2.59375 -5.828125 L 2.59375 0 L 1.03125 0 L 1.03125 -9.296875 L 2.609375 -9.296875 L 6.140625 -2.0625 L 9.53125 -9.296875 L 11.109375 -9.296875 Z M 11.109375 0 "/></g></g></g><g fill="#000000" fill-opacity="1"><g transform="translate(143.401242, 110.852949)"><g><path d="M 4.15625 -9.28125 C 4.15625 -9.28125 4.226562 -9.273438 4.375 -9.265625 C 4.53125 -9.265625 4.722656 -9.238281 4.953125 -9.1875 C 5.191406 -9.132812 5.441406 -9.050781 5.703125 -8.9375 C 5.972656 -8.832031 6.222656 -8.679688 6.453125 -8.484375 C 6.691406 -8.285156 6.882812 -8.03125 7.03125 -7.71875 C 7.175781 -7.40625 7.25 -7.019531 7.25 -6.5625 C 7.25 -6.113281 7.175781 -5.734375 7.03125 -5.421875 C 6.882812 -5.109375 6.691406 -4.847656 6.453125 -4.640625 C 6.222656 -4.441406 5.972656 -4.285156 5.703125 -4.171875 C 5.441406 -4.066406 5.191406 -3.988281 4.953125 -3.9375 C 4.722656 -3.894531 4.53125 -3.867188 4.375 -3.859375 C 4.226562 -3.847656 4.15625 -3.84375 4.15625 -3.84375 L 2.59375 -3.84375 L 2.59375 0.03125 L 1.046875 0.03125 L 1.046875 -9.28125 Z M 4.15625 -5.40625 C 4.15625 -5.40625 4.226562 -5.410156 4.375 -5.421875 C 4.53125 -5.429688 4.710938 -5.472656 4.921875 -5.546875 C 5.128906 -5.617188 5.3125 -5.734375 5.46875 -5.890625 C 5.625 -6.046875 5.703125 -6.269531 5.703125 -6.5625 C 5.703125 -6.851562 5.625 -7.078125 5.46875 -7.234375 C 5.3125 -7.398438 5.128906 -7.515625 4.921875 -7.578125 C 4.710938 -7.648438 4.53125 -7.691406 4.375 -7.703125 C 4.226562 -7.722656 4.15625 -7.734375 4.15625 -7.734375 L 2.59375 -7.734375 L 2.59375 -5.40625 Z M 4.15625 -5.40625 "/></g></g></g><g fill="#000000" fill-opacity="1"><g transform="translate(151.092836, 110.852949)"><g><path d="M 3.84375 -3.875 L 2.59375 -3.875 L 2.59375 0 L 1.03125 0 L 1.03125 -9.28125 L 4.125 -9.28125 C 4.125 -9.28125 4.195312 -9.273438 4.34375 -9.265625 C 4.5 -9.265625 4.691406 -9.238281 4.921875 -9.1875 C 5.160156 -9.132812 5.410156 -9.050781 5.671875 -8.9375 C 5.941406 -8.832031 6.191406 -8.679688 6.421875 -8.484375 C 6.660156 -8.285156 6.851562 -8.03125 7 -7.71875 C 7.15625 -7.40625 7.234375 -7.023438 7.234375 -6.578125 C 7.234375 -6.085938 7.140625 -5.675781 6.953125 -5.34375 C 6.773438 -5.019531 6.546875 -4.757812 6.265625 -4.5625 C 5.992188 -4.363281 5.71875 -4.210938 5.4375 -4.109375 L 7.328125 0 L 5.625 0 Z M 2.59375 -5.40625 L 4.125 -5.40625 C 4.125 -5.40625 4.203125 -5.410156 4.359375 -5.421875 C 4.515625 -5.441406 4.695312 -5.488281 4.90625 -5.5625 C 5.113281 -5.632812 5.289062 -5.75 5.4375 -5.90625 C 5.59375 -6.0625 5.671875 -6.285156 5.671875 -6.578125 C 5.671875 -6.867188 5.59375 -7.09375 5.4375 -7.25 C 5.289062 -7.40625 5.113281 -7.515625 4.90625 -7.578125 C 4.695312 -7.648438 4.515625 -7.691406 4.359375 -7.703125 C 4.203125 -7.722656 4.125 -7.734375 4.125 -7.734375 L 2.59375 -7.734375 Z M 2.59375 -5.40625 "/></g></g></g><g fill="#000000" fill-opacity="1"><g transform="translate(159.036391, 110.852949)"><g><path d="M 2.59375 -7.734375 L 2.59375 -5.40625 L 6.453125 -5.40625 L 6.453125 -3.875 L 2.59375 -3.875 L 2.59375 -1.546875 L 7.25 -1.546875 L 7.25 0 L 1.046875 0 L 1.046875 -9.28125 L 7.25 -9.28125 L 7.25 -7.734375 Z M 2.59375 -7.734375 "/></g></g></g><g fill="#000000" fill-opacity="1"><g transform="translate(166.834074, 110.852949)"><g><path d="M 3.625 0.125 C 3.09375 0.113281 2.609375 0.00390625 2.171875 -0.203125 C 1.734375 -0.410156 1.382812 -0.710938 1.125 -1.109375 C 0.863281 -1.515625 0.726562 -2.003906 0.71875 -2.578125 L 2.265625 -2.578125 C 2.285156 -2.191406 2.429688 -1.898438 2.703125 -1.703125 C 2.972656 -1.515625 3.28125 -1.421875 3.625 -1.421875 C 3.988281 -1.421875 4.300781 -1.523438 4.5625 -1.734375 C 4.832031 -1.953125 4.96875 -2.238281 4.96875 -2.59375 C 4.96875 -2.863281 4.898438 -3.09375 4.765625 -3.28125 C 4.628906 -3.46875 4.457031 -3.613281 4.25 -3.71875 C 4.039062 -3.832031 3.832031 -3.894531 3.625 -3.90625 C 3.582031 -3.90625 3.421875 -3.914062 3.140625 -3.9375 C 2.867188 -3.96875 2.566406 -4.054688 2.234375 -4.203125 C 1.742188 -4.429688 1.367188 -4.742188 1.109375 -5.140625 C 0.847656 -5.546875 0.71875 -6.023438 0.71875 -6.578125 C 0.71875 -7.171875 0.851562 -7.675781 1.125 -8.09375 C 1.394531 -8.519531 1.753906 -8.847656 2.203125 -9.078125 C 2.648438 -9.304688 3.125 -9.421875 3.625 -9.421875 C 4.164062 -9.421875 4.648438 -9.304688 5.078125 -9.078125 C 5.503906 -8.847656 5.84375 -8.535156 6.09375 -8.140625 C 6.34375 -7.742188 6.472656 -7.28125 6.484375 -6.75 L 4.953125 -6.75 C 4.941406 -7.132812 4.804688 -7.414062 4.546875 -7.59375 C 4.285156 -7.769531 3.976562 -7.859375 3.625 -7.859375 C 3.257812 -7.859375 2.941406 -7.753906 2.671875 -7.546875 C 2.398438 -7.335938 2.265625 -7.015625 2.265625 -6.578125 C 2.265625 -6.203125 2.40625 -5.910156 2.6875 -5.703125 C 2.96875 -5.503906 3.28125 -5.40625 3.625 -5.40625 C 3.65625 -5.40625 3.8125 -5.390625 4.09375 -5.359375 C 4.375 -5.328125 4.675781 -5.238281 5 -5.09375 C 5.5 -4.875 5.875 -4.539062 6.125 -4.09375 C 6.382812 -3.644531 6.515625 -3.144531 6.515625 -2.59375 C 6.515625 -2.007812 6.375 -1.507812 6.09375 -1.09375 C 5.820312 -0.6875 5.46875 -0.378906 5.03125 -0.171875 C 4.59375 0.0234375 4.125 0.125 3.625 0.125 Z M 3.625 0.125 "/></g></g></g><g fill="#000000" fill-opacity="1"><g transform="translate(174.03499, 110.852949)"><g><path d="M 5.328125 -1.078125 L 2.0625 -1.078125 L 1.671875 0 L 0 0 L 3.703125 -9.546875 L 7.421875 0 L 5.75 0 Z M 2.578125 -2.421875 L 4.828125 -2.421875 L 3.703125 -5.640625 Z M 2.578125 -2.421875 "/></g></g></g><g fill="#000000" fill-opacity="1"><g transform="translate(181.448093, 110.852949)"><g/></g></g><g fill="#000000" fill-opacity="1"><g transform="translate(186.023259, 110.852949)"><g><path d="M 2.59375 -9.28125 C 3.050781 -9.28125 3.53125 -9.25 4.03125 -9.1875 C 4.53125 -9.125 5.015625 -9.003906 5.484375 -8.828125 C 5.953125 -8.648438 6.375 -8.390625 6.75 -8.046875 C 7.132812 -7.710938 7.441406 -7.265625 7.671875 -6.703125 C 7.910156 -6.148438 8.03125 -5.460938 8.03125 -4.640625 C 8.03125 -3.847656 7.914062 -3.175781 7.6875 -2.625 C 7.457031 -2.082031 7.148438 -1.632812 6.765625 -1.28125 C 6.390625 -0.9375 5.96875 -0.671875 5.5 -0.484375 C 5.03125 -0.304688 4.546875 -0.179688 4.046875 -0.109375 C 3.546875 -0.0351562 3.0625 0 2.59375 0 L 1.046875 0 L 1.046875 -9.28125 Z M 2.59375 -1.515625 C 2.59375 -1.515625 2.6875 -1.503906 2.875 -1.484375 C 3.0625 -1.472656 3.300781 -1.476562 3.59375 -1.5 C 3.882812 -1.53125 4.195312 -1.597656 4.53125 -1.703125 C 4.863281 -1.804688 5.175781 -1.972656 5.46875 -2.203125 C 5.757812 -2.429688 5.992188 -2.742188 6.171875 -3.140625 C 6.359375 -3.535156 6.453125 -4.035156 6.453125 -4.640625 C 6.453125 -5.265625 6.359375 -5.773438 6.171875 -6.171875 C 5.992188 -6.566406 5.757812 -6.878906 5.46875 -7.109375 C 5.175781 -7.335938 4.863281 -7.5 4.53125 -7.59375 C 4.195312 -7.695312 3.882812 -7.757812 3.59375 -7.78125 C 3.300781 -7.800781 3.0625 -7.804688 2.875 -7.796875 C 2.6875 -7.785156 2.59375 -7.78125 2.59375 -7.78125 Z M 2.59375 -1.515625 "/></g></g></g><g fill="#000000" fill-opacity="1"><g transform="translate(194.802276, 110.852949)"><g><path d="M 2.59375 -7.734375 L 2.59375 -5.40625 L 6.453125 -5.40625 L 6.453125 -3.875 L 2.59375 -3.875 L 2.59375 -1.546875 L 7.25 -1.546875 L 7.25 0 L 1.046875 0 L 1.046875 -9.28125 L 7.25 -9.28125 L 7.25 -7.734375 Z M 2.59375 -7.734375 "/></g></g></g><g fill="#000000" fill-opacity="1"><g transform="translate(202.599958, 110.852949)"><g/></g></g><g fill="#000000" fill-opacity="1"><g transform="translate(207.175124, 110.852949)"><g><path d="M 5.703125 -7.859375 L 3.75 -7.859375 L 3.75 0 L 2.21875 0 L 2.21875 -7.859375 L 0.265625 -7.859375 L 0.265625 -9.28125 L 5.703125 -9.28125 Z M 5.703125 -7.859375 "/></g></g></g><g fill="#000000" fill-opacity="1"><g transform="translate(213.116215, 110.852949)"><g><path d="M 3.84375 -3.875 L 2.59375 -3.875 L 2.59375 0 L 1.03125 0 L 1.03125 -9.28125 L 4.125 -9.28125 C 4.125 -9.28125 4.195312 -9.273438 4.34375 -9.265625 C 4.5 -9.265625 4.691406 -9.238281 4.921875 -9.1875 C 5.160156 -9.132812 5.410156 -9.050781 5.671875 -8.9375 C 5.941406 -8.832031 6.191406 -8.679688 6.421875 -8.484375 C 6.660156 -8.285156 6.851562 -8.03125 7 -7.71875 C 7.15625 -7.40625 7.234375 -7.023438 7.234375 -6.578125 C 7.234375 -6.085938 7.140625 -5.675781 6.953125 -5.34375 C 6.773438 -5.019531 6.546875 -4.757812 6.265625 -4.5625 C 5.992188 -4.363281 5.71875 -4.210938 5.4375 -4.109375 L 7.328125 0 L 5.625 0 Z M 2.59375 -5.40625 L 4.125 -5.40625 C 4.125 -5.40625 4.203125 -5.410156 4.359375 -5.421875 C 4.515625 -5.441406 4.695312 -5.488281 4.90625 -5.5625 C 5.113281 -5.632812 5.289062 -5.75 5.4375 -5.90625 C 5.59375 -6.0625 5.671875 -6.285156 5.671875 -6.578125 C 5.671875 -6.867188 5.59375 -7.09375 5.4375 -7.25 C 5.289062 -7.40625 5.113281 -7.515625 4.90625 -7.578125 C 4.695312 -7.648438 4.515625 -7.691406 4.359375 -7.703125 C 4.203125 -7.722656 4.125 -7.734375 4.125 -7.734375 L 2.59375 -7.734375 Z M 2.59375 -5.40625 "/></g></g></g><g fill="#000000" fill-opacity="1"><g transform="translate(221.05977, 110.852949)"><g><path d="M 5.328125 -1.078125 L 2.0625 -1.078125 L 1.671875 0 L 0 0 L 3.703125 -9.546875 L 7.421875 0 L 5.75 0 Z M 2.578125 -2.421875 L 4.828125 -2.421875 L 3.703125 -5.640625 Z M 2.578125 -2.421875 "/></g></g></g><g fill="#000000" fill-opacity="1"><g transform="translate(228.472873, 110.852949)"><g><path d="M 5.671875 -4.625 C 6.117188 -4.539062 6.457031 -4.390625 6.6875 -4.171875 C 6.914062 -3.960938 7.078125 -3.742188 7.171875 -3.515625 C 7.273438 -3.285156 7.332031 -3.085938 7.34375 -2.921875 C 7.351562 -2.753906 7.359375 -2.671875 7.359375 -2.671875 C 7.359375 -2.148438 7.269531 -1.726562 7.09375 -1.40625 C 6.914062 -1.082031 6.6875 -0.820312 6.40625 -0.625 C 6.132812 -0.4375 5.847656 -0.296875 5.546875 -0.203125 C 5.242188 -0.109375 4.960938 -0.0507812 4.703125 -0.03125 C 4.453125 -0.0078125 4.265625 0 4.140625 0 L 1.046875 0 L 1.046875 -9.265625 L 4.140625 -9.265625 C 4.140625 -9.265625 4.210938 -9.265625 4.359375 -9.265625 C 4.515625 -9.265625 4.707031 -9.238281 4.9375 -9.1875 C 5.175781 -9.144531 5.425781 -9.070312 5.6875 -8.96875 C 5.945312 -8.875 6.191406 -8.726562 6.421875 -8.53125 C 6.660156 -8.34375 6.851562 -8.097656 7 -7.796875 C 7.15625 -7.492188 7.234375 -7.117188 7.234375 -6.671875 C 7.234375 -6.265625 7.160156 -5.921875 7.015625 -5.640625 C 6.867188 -5.367188 6.675781 -5.148438 6.4375 -4.984375 C 6.195312 -4.816406 5.941406 -4.695312 5.671875 -4.625 Z M 2.59375 -5.40625 L 4.140625 -5.40625 C 4.140625 -5.40625 4.21875 -5.410156 4.375 -5.421875 C 4.53125 -5.441406 4.707031 -5.488281 4.90625 -5.5625 C 5.113281 -5.632812 5.289062 -5.742188 5.4375 -5.890625 C 5.59375 -6.046875 5.671875 -6.269531 5.671875 -6.5625 C 5.671875 -6.875 5.59375 -7.109375 5.4375 -7.265625 C 5.289062 -7.429688 5.113281 -7.546875 4.90625 -7.609375 C 4.707031 -7.671875 4.53125 -7.707031 4.375 -7.71875 C 4.21875 -7.726562 4.140625 -7.734375 4.140625 -7.734375 L 2.59375 -7.734375 Z M 4.140625 -1.53125 C 4.359375 -1.53125 4.59375 -1.554688 4.84375 -1.609375 C 5.101562 -1.671875 5.328125 -1.785156 5.515625 -1.953125 C 5.710938 -2.117188 5.8125 -2.367188 5.8125 -2.703125 C 5.8125 -2.953125 5.753906 -3.148438 5.640625 -3.296875 C 5.535156 -3.453125 5.394531 -3.566406 5.21875 -3.640625 C 5.050781 -3.722656 4.882812 -3.78125 4.71875 -3.8125 C 4.550781 -3.84375 4.410156 -3.859375 4.296875 -3.859375 C 4.191406 -3.859375 4.140625 -3.859375 4.140625 -3.859375 L 2.59375 -3.859375 L 2.59375 -1.53125 Z M 4.140625 -1.53125 "/></g></g></g><g fill="#000000" fill-opacity="1"><g transform="translate(236.469478, 110.852949)"><g><path d="M 5.328125 -1.078125 L 2.0625 -1.078125 L 1.671875 0 L 0 0 L 3.703125 -9.546875 L 7.421875 0 L 5.75 0 Z M 2.578125 -2.421875 L 4.828125 -2.421875 L 3.703125 -5.640625 Z M 2.578125 -2.421875 "/></g></g></g><g fill="#000000" fill-opacity="1"><g transform="translate(243.882581, 110.852949)"><g><path d="M 2.59375 -1.546875 L 6.03125 -1.546875 L 6.03125 0 L 1.046875 0 L 1.046875 -9.28125 L 2.59375 -9.28125 Z M 2.59375 -1.546875 "/></g></g></g><g fill="#000000" fill-opacity="1"><g transform="translate(250.526526, 110.852949)"><g><path d="M 8.03125 -9.28125 L 8.03125 0 L 6.484375 0 L 6.484375 -3.875 L 2.625 -3.875 L 2.625 0 L 1.078125 0 L 1.078125 -9.28125 L 2.625 -9.28125 L 2.625 -5.4375 L 6.484375 -5.4375 L 6.484375 -9.28125 Z M 8.03125 -9.28125 "/></g></g></g><g fill="#000000" fill-opacity="1"><g transform="translate(259.623819, 110.852949)"><g><path d="M 5.265625 -9.40625 C 6.023438 -9.40625 6.691406 -9.269531 7.265625 -9 C 7.835938 -8.726562 8.3125 -8.367188 8.6875 -7.921875 C 9.070312 -7.472656 9.359375 -6.960938 9.546875 -6.390625 C 9.742188 -5.828125 9.84375 -5.242188 9.84375 -4.640625 C 9.84375 -4.035156 9.742188 -3.453125 9.546875 -2.890625 C 9.359375 -2.328125 9.070312 -1.816406 8.6875 -1.359375 C 8.3125 -0.910156 7.835938 -0.550781 7.265625 -0.28125 C 6.691406 -0.0078125 6.023438 0.125 5.265625 0.125 C 4.492188 0.125 3.820312 -0.0078125 3.25 -0.28125 C 2.6875 -0.550781 2.210938 -0.910156 1.828125 -1.359375 C 1.441406 -1.816406 1.148438 -2.328125 0.953125 -2.890625 C 0.765625 -3.453125 0.671875 -4.035156 0.671875 -4.640625 C 0.671875 -5.242188 0.765625 -5.828125 0.953125 -6.390625 C 1.148438 -6.960938 1.441406 -7.472656 1.828125 -7.921875 C 2.210938 -8.367188 2.691406 -8.726562 3.265625 -9 C 3.835938 -9.269531 4.503906 -9.40625 5.265625 -9.40625 Z M 5.265625 -1.375 C 5.835938 -1.375 6.328125 -1.488281 6.734375 -1.71875 C 7.148438 -1.957031 7.476562 -2.269531 7.71875 -2.65625 C 7.96875 -3.050781 8.132812 -3.476562 8.21875 -3.9375 C 8.300781 -4.40625 8.300781 -4.867188 8.21875 -5.328125 C 8.132812 -5.785156 7.96875 -6.207031 7.71875 -6.59375 C 7.476562 -6.988281 7.148438 -7.300781 6.734375 -7.53125 C 6.328125 -7.769531 5.835938 -7.890625 5.265625 -7.890625 C 4.691406 -7.890625 4.203125 -7.769531 3.796875 -7.53125 C 3.390625 -7.300781 3.0625 -6.988281 2.8125 -6.59375 C 2.5625 -6.207031 2.394531 -5.785156 2.3125 -5.328125 C 2.226562 -4.867188 2.226562 -4.40625 2.3125 -3.9375 C 2.394531 -3.476562 2.554688 -3.050781 2.796875 -2.65625 C 3.046875 -2.269531 3.375 -1.957031 3.78125 -1.71875 C 4.195312 -1.488281 4.691406 -1.375 5.265625 -1.375 Z M 5.265625 -1.375 "/></g></g></g><g fill="#000000" fill-opacity="1"><g transform="translate(270.193124, 110.852949)"><g/></g></g><g fill="#000000" fill-opacity="1"><g transform="translate(274.76829, 110.852949)"><g><path d="M 5.703125 -7.859375 L 3.75 -7.859375 L 3.75 0 L 2.21875 0 L 2.21875 -7.859375 L 0.265625 -7.859375 L 0.265625 -9.28125 L 5.703125 -9.28125 Z M 5.703125 -7.859375 "/></g></g></g><g fill="#000000" fill-opacity="1"><g transform="translate(280.70938, 110.852949)"><g><path d="M 2.59375 -7.734375 L 2.59375 -5.40625 L 6.453125 -5.40625 L 6.453125 -3.875 L 2.59375 -3.875 L 2.59375 -1.546875 L 7.25 -1.546875 L 7.25 0 L 1.046875 0 L 1.046875 -9.28125 L 7.25 -9.28125 L 7.25 -7.734375 Z M 2.59375 -7.734375 "/></g></g></g><g fill="#000000" fill-opacity="1"><g transform="translate(288.507063, 110.852949)"><g><path d="M 11.109375 0 L 9.546875 0 L 9.546875 -5.703125 L 6.890625 0 L 5.421875 0 L 2.59375 -5.828125 L 2.59375 0 L 1.03125 0 L 1.03125 -9.296875 L 2.609375 -9.296875 L 6.140625 -2.0625 L 9.53125 -9.296875 L 11.109375 -9.296875 Z M 11.109375 0 "/></g></g></g><g fill="#000000" fill-opacity="1"><g transform="translate(300.65447, 110.852949)"><g><path d="M 4.15625 -9.28125 C 4.15625 -9.28125 4.226562 -9.273438 4.375 -9.265625 C 4.53125 -9.265625 4.722656 -9.238281 4.953125 -9.1875 C 5.191406 -9.132812 5.441406 -9.050781 5.703125 -8.9375 C 5.972656 -8.832031 6.222656 -8.679688 6.453125 -8.484375 C 6.691406 -8.285156 6.882812 -8.03125 7.03125 -7.71875 C 7.175781 -7.40625 7.25 -7.019531 7.25 -6.5625 C 7.25 -6.113281 7.175781 -5.734375 7.03125 -5.421875 C 6.882812 -5.109375 6.691406 -4.847656 6.453125 -4.640625 C 6.222656 -4.441406 5.972656 -4.285156 5.703125 -4.171875 C 5.441406 -4.066406 5.191406 -3.988281 4.953125 -3.9375 C 4.722656 -3.894531 4.53125 -3.867188 4.375 -3.859375 C 4.226562 -3.847656 4.15625 -3.84375 4.15625 -3.84375 L 2.59375 -3.84375 L 2.59375 0.03125 L 1.046875 0.03125 L 1.046875 -9.28125 Z M 4.15625 -5.40625 C 4.15625 -5.40625 4.226562 -5.410156 4.375 -5.421875 C 4.53125 -5.429688 4.710938 -5.472656 4.921875 -5.546875 C 5.128906 -5.617188 5.3125 -5.734375 5.46875 -5.890625 C 5.625 -6.046875 5.703125 -6.269531 5.703125 -6.5625 C 5.703125 -6.851562 5.625 -7.078125 5.46875 -7.234375 C 5.3125 -7.398438 5.128906 -7.515625 4.921875 -7.578125 C 4.710938 -7.648438 4.53125 -7.691406 4.375 -7.703125 C 4.226562 -7.722656 4.15625 -7.734375 4.15625 -7.734375 L 2.59375 -7.734375 L 2.59375 -5.40625 Z M 4.15625 -5.40625 "/></g></g></g><g fill="#000000" fill-opacity="1"><g transform="translate(308.346053, 110.852949)"><g><path d="M 5.265625 -9.40625 C 6.023438 -9.40625 6.691406 -9.269531 7.265625 -9 C 7.835938 -8.726562 8.3125 -8.367188 8.6875 -7.921875 C 9.070312 -7.472656 9.359375 -6.960938 9.546875 -6.390625 C 9.742188 -5.828125 9.84375 -5.242188 9.84375 -4.640625 C 9.84375 -4.035156 9.742188 -3.453125 9.546875 -2.890625 C 9.359375 -2.328125 9.070312 -1.816406 8.6875 -1.359375 C 8.3125 -0.910156 7.835938 -0.550781 7.265625 -0.28125 C 6.691406 -0.0078125 6.023438 0.125 5.265625 0.125 C 4.492188 0.125 3.820312 -0.0078125 3.25 -0.28125 C 2.6875 -0.550781 2.210938 -0.910156 1.828125 -1.359375 C 1.441406 -1.816406 1.148438 -2.328125 0.953125 -2.890625 C 0.765625 -3.453125 0.671875 -4.035156 0.671875 -4.640625 C 0.671875 -5.242188 0.765625 -5.828125 0.953125 -6.390625 C 1.148438 -6.960938 1.441406 -7.472656 1.828125 -7.921875 C 2.210938 -8.367188 2.691406 -8.726562 3.265625 -9 C 3.835938 -9.269531 4.503906 -9.40625 5.265625 -9.40625 Z M 5.265625 -1.375 C 5.835938 -1.375 6.328125 -1.488281 6.734375 -1.71875 C 7.148438 -1.957031 7.476562 -2.269531 7.71875 -2.65625 C 7.96875 -3.050781 8.132812 -3.476562 8.21875 -3.9375 C 8.300781 -4.40625 8.300781 -4.867188 8.21875 -5.328125 C 8.132812 -5.785156 7.96875 -6.207031 7.71875 -6.59375 C 7.476562 -6.988281 7.148438 -7.300781 6.734375 -7.53125 C 6.328125 -7.769531 5.835938 -7.890625 5.265625 -7.890625 C 4.691406 -7.890625 4.203125 -7.769531 3.796875 -7.53125 C 3.390625 -7.300781 3.0625 -6.988281 2.8125 -6.59375 C 2.5625 -6.207031 2.394531 -5.785156 2.3125 -5.328125 C 2.226562 -4.867188 2.226562 -4.40625 2.3125 -3.9375 C 2.394531 -3.476562 2.554688 -3.050781 2.796875 -2.65625 C 3.046875 -2.269531 3.375 -1.957031 3.78125 -1.71875 C 4.195312 -1.488281 4.691406 -1.375 5.265625 -1.375 Z M 5.265625 -1.375 "/></g></g></g><g fill="#000000" fill-opacity="1"><g transform="translate(318.915348, 110.852949)"><g><path d="M 3.84375 -3.875 L 2.59375 -3.875 L 2.59375 0 L 1.03125 0 L 1.03125 -9.28125 L 4.125 -9.28125 C 4.125 -9.28125 4.195312 -9.273438 4.34375 -9.265625 C 4.5 -9.265625 4.691406 -9.238281 4.921875 -9.1875 C 5.160156 -9.132812 5.410156 -9.050781 5.671875 -8.9375 C 5.941406 -8.832031 6.191406 -8.679688 6.421875 -8.484375 C 6.660156 -8.285156 6.851562 -8.03125 7 -7.71875 C 7.15625 -7.40625 7.234375 -7.023438 7.234375 -6.578125 C 7.234375 -6.085938 7.140625 -5.675781 6.953125 -5.34375 C 6.773438 -5.019531 6.546875 -4.757812 6.265625 -4.5625 C 5.992188 -4.363281 5.71875 -4.210938 5.4375 -4.109375 L 7.328125 0 L 5.625 0 Z M 2.59375 -5.40625 L 4.125 -5.40625 C 4.125 -5.40625 4.203125 -5.410156 4.359375 -5.421875 C 4.515625 -5.441406 4.695312 -5.488281 4.90625 -5.5625 C 5.113281 -5.632812 5.289062 -5.75 5.4375 -5.90625 C 5.59375 -6.0625 5.671875 -6.285156 5.671875 -6.578125 C 5.671875 -6.867188 5.59375 -7.09375 5.4375 -7.25 C 5.289062 -7.40625 5.113281 -7.515625 4.90625 -7.578125 C 4.695312 -7.648438 4.515625 -7.691406 4.359375 -7.703125 C 4.203125 -7.722656 4.125 -7.734375 4.125 -7.734375 L 2.59375 -7.734375 Z M 2.59375 -5.40625 "/></g></g></g><g fill="#000000" fill-opacity="1"><g transform="translate(326.858914, 110.852949)"><g><path d="M 2.09375 -10.890625 L 4.609375 -12.265625 L 5.3125 -11.15625 L 2.75 -9.796875 Z M 5.328125 -1.078125 L 2.0625 -1.078125 L 1.671875 0 L 0 0 L 3.703125 -9.546875 L 7.421875 0 L 5.75 0 Z M 2.578125 -2.421875 L 4.828125 -2.421875 L 3.703125 -5.640625 Z M 2.578125 -2.421875 "/></g></g></g><g fill="#000000" fill-opacity="1"><g transform="translate(334.272006, 110.852949)"><g><path d="M 3.84375 -3.875 L 2.59375 -3.875 L 2.59375 0 L 1.03125 0 L 1.03125 -9.28125 L 4.125 -9.28125 C 4.125 -9.28125 4.195312 -9.273438 4.34375 -9.265625 C 4.5 -9.265625 4.691406 -9.238281 4.921875 -9.1875 C 5.160156 -9.132812 5.410156 -9.050781 5.671875 -8.9375 C 5.941406 -8.832031 6.191406 -8.679688 6.421875 -8.484375 C 6.660156 -8.285156 6.851562 -8.03125 7 -7.71875 C 7.15625 -7.40625 7.234375 -7.023438 7.234375 -6.578125 C 7.234375 -6.085938 7.140625 -5.675781 6.953125 -5.34375 C 6.773438 -5.019531 6.546875 -4.757812 6.265625 -4.5625 C 5.992188 -4.363281 5.71875 -4.210938 5.4375 -4.109375 L 7.328125 0 L 5.625 0 Z M 2.59375 -5.40625 L 4.125 -5.40625 C 4.125 -5.40625 4.203125 -5.410156 4.359375 -5.421875 C 4.515625 -5.441406 4.695312 -5.488281 4.90625 -5.5625 C 5.113281 -5.632812 5.289062 -5.75 5.4375 -5.90625 C 5.59375 -6.0625 5.671875 -6.285156 5.671875 -6.578125 C 5.671875 -6.867188 5.59375 -7.09375 5.4375 -7.25 C 5.289062 -7.40625 5.113281 -7.515625 4.90625 -7.578125 C 4.695312 -7.648438 4.515625 -7.691406 4.359375 -7.703125 C 4.203125 -7.722656 4.125 -7.734375 4.125 -7.734375 L 2.59375 -7.734375 Z M 2.59375 -5.40625 "/></g></g></g><g fill="#000000" fill-opacity="1"><g transform="translate(342.215572, 110.852949)"><g><path d="M 1.09375 0 L 1.09375 -9.28125 L 2.640625 -9.28125 L 2.640625 0 Z M 1.09375 0 "/></g></g></g><g fill="#000000" fill-opacity="1"><g transform="translate(345.928757, 110.852949)"><g><path d="M 5.265625 -9.40625 C 6.023438 -9.40625 6.691406 -9.269531 7.265625 -9 C 7.835938 -8.726562 8.3125 -8.367188 8.6875 -7.921875 C 9.070312 -7.472656 9.359375 -6.960938 9.546875 -6.390625 C 9.742188 -5.828125 9.84375 -5.242188 9.84375 -4.640625 C 9.84375 -4.035156 9.742188 -3.453125 9.546875 -2.890625 C 9.359375 -2.328125 9.070312 -1.816406 8.6875 -1.359375 C 8.3125 -0.910156 7.835938 -0.550781 7.265625 -0.28125 C 6.691406 -0.0078125 6.023438 0.125 5.265625 0.125 C 4.492188 0.125 3.820312 -0.0078125 3.25 -0.28125 C 2.6875 -0.550781 2.210938 -0.910156 1.828125 -1.359375 C 1.441406 -1.816406 1.148438 -2.328125 0.953125 -2.890625 C 0.765625 -3.453125 0.671875 -4.035156 0.671875 -4.640625 C 0.671875 -5.242188 0.765625 -5.828125 0.953125 -6.390625 C 1.148438 -6.960938 1.441406 -7.472656 1.828125 -7.921875 C 2.210938 -8.367188 2.691406 -8.726562 3.265625 -9 C 3.835938 -9.269531 4.503906 -9.40625 5.265625 -9.40625 Z M 5.265625 -1.375 C 5.835938 -1.375 6.328125 -1.488281 6.734375 -1.71875 C 7.148438 -1.957031 7.476562 -2.269531 7.71875 -2.65625 C 7.96875 -3.050781 8.132812 -3.476562 8.21875 -3.9375 C 8.300781 -4.40625 8.300781 -4.867188 8.21875 -5.328125 C 8.132812 -5.785156 7.96875 -6.207031 7.71875 -6.59375 C 7.476562 -6.988281 7.148438 -7.300781 6.734375 -7.53125 C 6.328125 -7.769531 5.835938 -7.890625 5.265625 -7.890625 C 4.691406 -7.890625 4.203125 -7.769531 3.796875 -7.53125 C 3.390625 -7.300781 3.0625 -6.988281 2.8125 -6.59375 C 2.5625 -6.207031 2.394531 -5.785156 2.3125 -5.328125 C 2.226562 -4.867188 2.226562 -4.40625 2.3125 -3.9375 C 2.394531 -3.476562 2.554688 -3.050781 2.796875 -2.65625 C 3.046875 -2.269531 3.375 -1.957031 3.78125 -1.71875 C 4.195312 -1.488281 4.691406 -1.375 5.265625 -1.375 Z M 5.265625 -1.375 "/></g></g></g><path stroke-linecap="butt" transform="matrix(0.898652, -0.00171461, 0.00171461, 0.898652, 120.381829, 93.522798)" fill="none" stroke-linejoin="miter" d="M 0.000139403 0.500593 L 261.307422 0.499282 " stroke="#000000" stroke-width="1" stroke-opacity="1" stroke-miterlimit="4"/><path stroke-linecap="round" transform="matrix(0.898652, -0.00171461, 0.00171461, 0.898652, 120.381829, 93.522798)" fill="none" stroke-linejoin="round" d="M 261.558049 -0.999883 L 261.556674 1.9994 " stroke="#000000" stroke-width="1" stroke-opacity="1" stroke-miterlimit="4"/></svg>